<svg width="32" height="32" viewBox="0 0 32 32" fill="none" xmlns="http://www.w3.org/2000/svg">
  <rect width="32" height="32" rx="6" fill="url(#gradient)"/>
  <path d="M16 8C18.5 8 20.5 10 20.5 12.5C20.5 15 18.5 17 16 17C13.5 17 11.5 15 11.5 12.5C11.5 10 13.5 8 16 8Z" fill="#FCD34D"/>
  <circle cx="14" cy="11" r="1" fill="#000"/>
  <circle cx="18" cy="11" r="1" fill="#000"/>
  <path d="M16 13L17 14H15L16 13Z" fill="#000"/>
  <path d="M8 20C8 18 10 16 12 16H20C22 16 24 18 24 20V24H8V20Z" fill="#EA580C"/>
  <path d="M10 22H14V24H10V22Z" fill="#DC2626"/>
  <path d="M18 22H22V24H18V22Z" fill="#DC2626"/>
  <defs>
    <linearGradient id="gradient" x1="0" y1="0" x2="32" y2="32" gradientUnits="userSpaceOnUse">
      <stop offset="0%" stop-color="#DC2626"/>
      <stop offset="100%" stop-color="#EA580C"/>
    </linearGradient>
  </defs>
</svg>